<svg xmlns="http://www.w3.org/2000/svg" height="197.73" viewBox="0 0 250 197.73135" width="250"><g transform="matrix(1.25 0 0 -1.25 -101 324.87)"><g><path d="m176.59 200.8-0.0303 0.0511c0.0296-0.0442 0.0448-0.0719 0.0543-0.0902l-0.024 0.0391zm84.383-73.26-11.435 67.343-26.954-47.86-14.019 25.583c2.2837 0.42153 4.4425 1.488 6.2902 3.14 3.0731 2.7488 4.9196 6.8631 4.9082 11.006-0.0315 11.432-13.411 15.084-13.411 15.084s0.22654-7.5459-3.6524-8.9878c-0.77428-0.28839-1.7555-0.70424-2.7248-1.0122 2.0818 3.1886 3.217 7.0657 3.1968 11.128-0.0202 4.0607-1.9272 10.619-7.2342 15.739-4.7151 4.5498-11.042 6.8272-18.311 6.612-1.2084-0.0379-2.415-0.15713-3.6076-0.3559l1.4287 8.6004c3.3016 14.215 18.797 21.308 18.797 21.308l-33.547-0.0196c-3.188 0-5.9923-2.4295-6.4088-5.5405l-2.0912-14.68-15.038 24.525-14.978-24.542-2.1424 14.713c-0.42342 3.1041-3.224 5.526-6.405 5.526l-32.263 0.0189s14.617-8.3833 17.406-20.688l11.617-67.343 26.772 47.861 16.884-30.812c-4.8123-5.6314-7.515-12.843-7.515-20.288 0-17.225 14.013-31.238 31.238-31.238 2.4945 0 4.9707 0.29974 7.3755 0.88598l-0.84495-5.0849c-2.7425-12.074-19.25-21.309-19.25-21.309l34.001 0.0196c3.1861 0 5.9892 2.427 6.4082 5.5354l2.0919 14.686 15.038-24.526 14.978 24.542 2.1424-14.709c0.42279-3.106 3.2233-5.5291 6.405-5.5291l33.654-0.0839s-14.283 6.3242-18.797 20.753" fill="#115740"/><path d="m256.34 126.57-9.2207 55.4-24.44-44.632h-0.18111l-22.969 41.913c1.0948-0.77113 2.9962-1.7379 5.9368-2.0673 5.2426-0.5875 9.5678 4.2923 9.5678 9.5678 0 3.9572-2.3355 7.8968-5.8472 8.8156 1.3378-15.492-41.674-4.1049-40.998-30.487 0.69035-13.984 20.59-13.928 19.154-1.4836-11.797-0.0637-8.2224 13.19 0.71623 11.371l0.15208-0.11674c2.9804-2.7677 4.7094-6.8764 4.7094-11.255 0-8.3518-6.7944-15.146-15.145-15.146-8.3518 0-15.11 6.665-15.146 15.146-0.0366 8.4805 3.8279 15.619 15.108 21.696-2.6434 1.5056-9.357 5.2887-9.5406 14.366h0.0107c0 5.2754 4.3049 9.5678 9.5684 9.5678 3.826 0 7.0058-3.0712 7.0058-6.8354 0-3.7641-3.063-6.8934-6.8272-6.8272-3.7982 0.0669-5.3878 2.7469-5.4042 2.7747 0.017-5.4938 4.9959-9.5198 9.9893-9.9628 9.6826-0.8601 15.946 6.0422 15.903 14.566-0.0284 5.6503-5.3884 18.115-20.666 17.644-3.4997-0.10854-6.7988-1.0191-9.7015-2.5519l2.7311 16.447c2.6642 11.669 10.097 15.646 10.097 15.646l-20.203-0.0101c-0.90553 0-1.6293-0.72379-1.7196-1.4476l-3.9831-27.968h-0.18048l-17.645 30.377-17.564-30.377h-0.18111l-4.0733 27.968c-0.0896 0.7238-0.9049 1.4476-1.7189 1.4476l-20.16 0.0101s7.1522-3.8216 9.9413-14.975l9.2207-55.401 24.439 44.632h0.1811l22.616-41.269c-5.2818-4.8482-8.6029-11.799-8.6029-19.516 0-14.615 11.89-26.505 26.505-26.505 4.8949 0 9.4807 1.339 13.42 3.6619l-2.244-13.514c-2.6642-11.669-10.097-15.646-10.097-15.646l20.203 0.0101c0.9049 0 1.6293 0.7238 1.7189 1.4482l3.9831 27.967h0.18111l17.644-30.376 17.564 30.376h0.18111l4.0733-27.967c0.0902-0.72443 0.90553-1.4482 1.7196-1.4482l20.159-0.0101s-7.1515 3.8222-9.9407 14.976" fill="#f0b323"/></g></g></svg>
